<?xml version="1.0" encoding="UTF-8"?>
<svg id="Calque_2" data-name="Calque 2" xmlns="http://www.w3.org/2000/svg" viewBox="0 0 353.55 353.55">
  <defs>
    <style>
      .cls-1 {
        fill: #fff;
        stroke-width: 0px;
      }
    </style>
  </defs>
  <g id="Calque_1-2" data-name="Calque 1">
    <path class="cls-1" d="M282.84,49.5l21.21,21.21-81.32,81.32-24.75,24.75,24.75,24.75,81.32,81.32-21.21,21.21-81.32-81.32-24.75-24.75-24.75,24.75-81.32,81.32-21.21-21.21,81.32-81.32,24.75-24.75-24.75-24.75L49.5,70.71l21.21-21.21,81.32,81.32,24.75,24.75,24.75-24.75,81.32-81.32M282.84,0l-106.07,106.07L70.71,0,0,70.71l106.07,106.07L0,282.84l70.71,70.71,106.07-106.07,106.07,106.07,70.71-70.71-106.07-106.07,106.07-106.07L282.84,0h0Z"/>
  </g>
</svg>