<?xml version="1.0" encoding="UTF-8"?>
<svg id="Calque_2" data-name="Calque 2" xmlns="http://www.w3.org/2000/svg" viewBox="0 0 353.55 353.55">
  <defs>
    <style>
      .cls-1 {
        fill: #fff;
        stroke-width: 0px;
      }
    </style>
  </defs>
  <g id="Calque_1-2" data-name="Calque 1">
    <path class="cls-1" d="M282.84,28.28l42.43,42.43-91.92,91.92-14.14,14.14,14.14,14.14,91.92,91.92-42.43,42.43-91.92-91.92-14.14-14.14-14.14,14.14-91.92,91.92-42.43-42.43,91.92-91.92,14.14-14.14-14.14-14.14L28.28,70.71l42.43-42.43,91.92,91.92,14.14,14.14,14.14-14.14,91.92-91.92M282.84,0l-106.07,106.07L70.71,0,0,70.71l106.07,106.07L0,282.84l70.71,70.71,106.07-106.07,106.07,106.07,70.71-70.71-106.07-106.07,106.07-106.07L282.84,0h0Z"/>
  </g>
</svg>