<?xml version="1.0" encoding="UTF-8"?>
<svg id="Calque_2" data-name="Calque 2" xmlns="http://www.w3.org/2000/svg" viewBox="0 0 392 392">
  <defs>
    <style>
      .cls-1 {
        fill: #fff;
        stroke-width: 0px;
      }
    </style>
  </defs>
  <g id="Calque_1-2" data-name="Calque 1">
    <path class="cls-1" d="M196,50c39,0,75.66,15.19,103.24,42.76,27.58,27.58,42.76,64.24,42.76,103.24s-15.19,75.66-42.76,103.24c-27.58,27.58-64.24,42.76-103.24,42.76s-75.66-15.19-103.24-42.76c-27.58-27.58-42.76-64.24-42.76-103.24s15.19-75.66,42.76-103.24c27.58-27.58,64.24-42.76,103.24-42.76M196,0C87.75,0,0,87.75,0,196s87.75,196,196,196,196-87.75,196-196S304.25,0,196,0h0Z"/>
  </g>
</svg>