<?xml version="1.0" encoding="UTF-8"?>
<svg id="Calque_2" data-name="Calque 2" xmlns="http://www.w3.org/2000/svg" viewBox="0 0 392 392">
  <defs>
    <style>
      .cls-1 {
        fill: #fff;
        stroke-width: 0px;
      }
    </style>
  </defs>
  <g id="Calque_1-2" data-name="Calque 1">
    <path class="cls-1" d="M196,20c47.01,0,91.21,18.31,124.45,51.55,33.24,33.24,51.55,77.44,51.55,124.45s-18.31,91.21-51.55,124.45-77.44,51.55-124.45,51.55-91.21-18.31-124.45-51.55c-33.24-33.24-51.55-77.44-51.55-124.45s18.31-91.21,51.55-124.45c33.24-33.24,77.44-51.55,124.45-51.55M196,0C87.75,0,0,87.75,0,196s87.75,196,196,196,196-87.75,196-196S304.25,0,196,0h0Z"/>
  </g>
</svg>